<svg xmlns="http://www.w3.org/2000/svg" xmlns:xlink="http://www.w3.org/1999/xlink" viewBox="0 0 86.243 33.428">
  <defs>
    <style>
      .cls-1 {
        fill: #fff;
      }

      .cls-2 {
        fill: url(#linear-gradient);
      }
    </style>
    <linearGradient id="linear-gradient" y1="0.5" x2="1" y2="0.5" gradientUnits="objectBoundingBox">
      <stop offset="0" stop-color="#f60a7e"/>
      <stop offset="1" stop-color="#fbca02"/>
    </linearGradient>
  </defs>
  <g id="Group_1" data-name="Group 1" transform="translate(0 -0.263)">
    <path id="Fill_17" data-name="Fill 17" class="cls-1" d="M7.872,25.979H4.555C1.362,25.979,0,24.617,0,21.423V4.556C0,1.362,1.362,0,4.555,0H7.872C12.058,0,15.1.753,16.9,2.238a6.732,6.732,0,0,1,2.033,3.1,15.316,15.316,0,0,1,.685,4.9v5.515a13.97,13.97,0,0,1-.684,4.684,7.24,7.24,0,0,1-2.119,3.174,8.925,8.925,0,0,1-3.655,1.8A21.019,21.019,0,0,1,7.872,25.979ZM5.755,3.956A1.364,1.364,0,0,0,4.2,5.476V20.5a1.364,1.364,0,0,0,1.559,1.518H7.872c2.919,0,4.84-.445,5.873-1.359S15.3,18.095,15.3,15.747V10.232c0-2.354-.51-3.949-1.559-4.876s-3.025-1.4-5.873-1.4Z" transform="translate(0 0.291)"/>
    <path id="Fill_19" data-name="Fill 19" class="cls-1" d="M0,1.839C0,.36.36,0,1.838,0h.52C3.836,0,4.2.36,4.2,1.839v22.3c0,1.479-.359,1.838-1.838,1.838h-.52C.36,25.979,0,25.619,0,24.141Z" transform="translate(24.385 0.291)"/>
    <path id="Fill_21" data-name="Fill 21" class="cls-1" d="M31.546,20.144a9.056,9.056,0,0,1-1.758,4.8,5.289,5.289,0,0,1-4.076,1.4,4.816,4.816,0,0,1-3.876-1.4,10.336,10.336,0,0,1-1.638-4.8L18.04,5.236c-.2-1.4-.32-1.639-.959-1.639-.6,0-.759.32-.959,1.639L14,20.144a9.9,9.9,0,0,1-1.639,4.8,4.762,4.762,0,0,1-3.877,1.4,5.386,5.386,0,0,1-4.115-1.4c-.84-.919-1.4-2.518-1.718-4.8L.057,1.839C-.143.36.137,0,1.616,0h.559C3.654,0,4.053.36,4.253,1.839L6.81,20.144c.28,1.958.679,2.438,1.678,2.438.96,0,1.359-.52,1.679-2.438L12.485,4.916C13.084,1.2,14.084,0,17.08,0s4,1.119,4.6,4.916l2.358,15.228c.319,1.918.719,2.438,1.678,2.438,1,0,1.4-.52,1.679-2.438L29.948,1.839C30.147.36,30.547,0,32.025,0h.559c1.478,0,1.759.36,1.559,1.839Z" transform="translate(32.849 0.291)"/>
    <path id="Fill_23" data-name="Fill 23" class="cls-1" d="M11.748,3.985c-2.877,0-4.835.48-5.874,1.4S4.316,7.9,4.316,10.26v.755h8.667c1.456,0,1.82.364,1.82,1.82V13.2c0,1.456-.364,1.82-1.82,1.82H4.316v.755q0,3.537,1.559,4.916c1.039.919,3,1.359,5.874,1.359,0,0,2.128.06,2.847,0,1.485-.1,1.855.043,2.108,1.477l.063.358c.253,1.434-.042,1.807-1.476,2.06-.7.089-3.543.065-3.543.065C3.556,26.008,0,23.09,0,15.776V10.26C0,6.384.92,3.746,2.717,2.267S7.553.029,11.748.029a32.345,32.345,0,0,1,3.5.045c1.434.253,1.772.632,1.519,2.067L16.7,2.5c-.253,1.434-.631,1.574-2.108,1.477-.824-.051-2.847.01-2.847.01" transform="translate(69.394 0.263)"/>
    <g id="Group_28" data-name="Group 28" transform="translate(17.601 28.243)">
      <path id="Fill_26" data-name="Fill 26" class="cls-2" d="M1.079.493l-.485.619L.28,1.506A1.281,1.281,0,0,0,.66,3.425h0A16.96,16.96,0,0,0,8.843,5.447h0a16.96,16.96,0,0,0,8.162-2h0a1.28,1.28,0,0,0,.382-1.919h0L16.578.507A1.278,1.278,0,0,0,14.983.168h0A13.229,13.229,0,0,1,8.843,1.6h0A13.243,13.243,0,0,1,2.681.147h0A1.267,1.267,0,0,0,2.089,0h0a1.283,1.283,0,0,0-1.01.493" transform="translate(0)"/>
    </g>
  </g>
</svg>
